# xmcd CD database file
#
# Track frame offsets:
#	150
#	13192
#	26647
#	39767
#	51970
#	65110
#	78637
#	91220
#	101555
#	114185
#	126700
#	138232
#	155795
#	169955
#	183300
#	194807
#	209982
#	223755
#
# Disc length: 3184 seconds
#
# Revision: 1
# Processed by: cddbd v1.5.2PL0 Copyright (c) Steve Scherf et al.
# Submitted via: CDex 1.51
#
DISCID=180c6e12
DTITLE=Various Artist - 25 Years Of Great Original Hits - The Motown Story - Disc 5
DYEAR=1993
DGENRE=Pop
TTITLE0=Martha Reeves and The Vandellas - Jimmy Mack
TTITLE1=Marvin Gaye and Kim Weston - It Takes Two
TTITLE2=Diana Ross and The Supremes - Stop! In The Name Of Love
TTITLE3=The Isley Brothers - Put Yourself In My Place
TTITLE4=Gladys Knight and The Pips - Take Me In Your Arms And Love Me
TTITLE5=Marvin Gaye and Tammy Terrell - The Onion Song
TTITLE6=Stevie Wonder - For Once In My Life
TTITLE7=Edwin Starr - Stop Her On Sight (SOS)
TTITLE8=Diana Ross and The Supremes - The Happening
TTITLE9=Martha Reeves and The Vandellas - (Love As Like A) Heatwave
TTITLE10=Michael Jackson - Rockin' Robin
TTITLE11=R Dean Taylor - Indiana Wants Me
TTITLE12=Stevie Wonder - Never Had A Dream Come True
TTITLE13=The Supremes - Stoned Love
TTITLE14=The Elgins - Heaven Must Have Sent You
TTITLE15=Edwin Starr - War
TTITLE16=The Jackson Five - The Love You Save
TTITLE17=Diana Ross - Remember Me
EXTD=YEAR: 1993
EXTT0=
EXTT1=
EXTT2=
EXTT3=
EXTT4=
EXTT5=
EXTT6=
EXTT7=
EXTT8=
EXTT9=
EXTT10=
EXTT11=
EXTT12=
EXTT13=
EXTT14=
EXTT15=
EXTT16=
EXTT17=
PLAYORDER=
